<svg role="img" aria-hidden="true" enable-background="new 0 0 100 100" viewBox="0 0 100 100" xmlns="http://www.w3.org/2000/svg">
    <path d="m97.21 26.37s-.16-.64-.75-1.74c.03.04.05.07.08.11-5.57-10.23-11.57-5.27-9.53-8.32-2.87 1.09-7.31 5.98-9.44 8.67.01-1.37 1.41-4.44 7.03-12.45-11.67 9-5.76 21.23-9.52 33.11-1.91.96-1.75 5.28-3.29 6.79-7.15 5.47-1.08-6.18-3.06-10.56 0 0-.01.01-.02.04-.56-8-10.77-13.99-15.15-11.78.06 0 .12-.01.18-.01-.29.13-.36-.36-.38-.61.31-1.33-1.07 1.25-1.4 1.05-.42-.12-.26-1.72-.66-.91-.34.69-.85 2.49-1.12.88-.02-.57.16-1.04-.27-.27-.71 1.33-5.98 6.5-3.66 12.43-2.08 4.84 4.58 3.72 2.77 8.24-.7 1.6 2.57 1.57 2.97.8.14.15-1.9-4.96-.42-4.86.33.4 3.34 2.86 1.48 3.32.51.06 1.82-.68 1.29.03 5.05-.61 1.28-2.57 1.12-4.89v.01c1.77-3.58-10.5-8.22-3.04-11.63-.01.01-.02.02-.02.02 12.41-4.46 15.14 15.58 9.56 19.82-.71.17 1.2 1.26-1.06 1.49-.8.19 1.54 1.32-1.1 1.37-1.1.16.92.57.09 1.15-3.01-2.6-1.08-.18-6.18-.5-5.89-.07-8.04-2.43-11.52-5.7-12.74-15.92.37-17.87-23.98-34.4 0 0 .01.01.01.01-.05-.03-.09-.07-.14-.1 11.72 10.16 14.22 13.97 14.59 15.74-.01 0-.01-.01-.02-.01-1-1.4-14.06-9.16-14.69-8.41 2.98 1.71-12.5 1.28-16.24 9.95 0 0 2.19-3.05 6.28-5.19-1.65 7.93 6.16 31.02 8.26 36.04 0 0 .59-7.12 3.01-14.51-.81 2.7 18.94 14.85 17.83 15.45-.51-1.08 4.65-7.35 4.78-4.34-.94-3.19 8.32 1.91 8.78 4.43-3.17.62-2.92-.34-4.74-2.09-5.46-1.46-4.71 4.41-2.15 8.09-.36-1.81-.56-2.75-.37-4.05.19 1.31.69 2.72 2.3 4.48-.99-2.25-.95-3.5-.72-4.73.15 1.05.57 2.13 1.92 3.83-.02-.03-.03-.07-.05-.1.03.05.05.08.05.08-2.98-8.97 6.5 1.59-7.05 4.26h.01c-6.59-6.74-24.64-5.01-15.54 5.61 5.76 2.99 11.6.35 18-2.63 9.95 5.78 17.41 7.28 25.7 3.56-7.34 3.09-17.54.48-24.26-4.28 2.45-1.27 5.53-2.94 7.73-4.16 2.87-1.68 5.17.66 8-1.53-.58 1.18-.36 2.31-.36 2.31.36-5.03 7.13-2.79 2.79 1.51 1-.66 2.35-1.77 2.75-2.89.05.79-.17 2.01-1.24 4.12 0 0 1.26-1.1 2.04-2.51.02.76-.04 1.76-.25 3.12 3.14-5.68-.08-11.35-5.85-7.23 2.84-2.63 6.8-6.42 9.45-9.89-.02 0-.03 0-.05 0 3.18-1.53 5.99-3.1 5.55-1.82.52-1.5 4.1 3.06 3.6 4.01.85-1.92 12.03-19.16 10.87-22.76 1.81 5.18 2.64 9.81 2.64 9.81.54-2.53 3.98-25.23 1.82-29.06 2.58 2.12 3.96 5.18 3.96 5.18zm-48.11 30.47c.03.02.08.04.14.07-.05-.02-.1-.04-.14-.07zm-12.69 21.23c-20.18 6.51-11.07-11.46 2.31-1.05-.89.43-1.7.79-2.31 1.05z" />
</svg>
