<svg role="img" aria-hidden="true" xmlns="http://www.w3.org/2000/svg" xmlns:xlink="http://www.w3.org/1999/xlink" version="1.1" x="0px" y="0px" viewBox="0 0 64 64" style="enable-background:new 0 0 64 64;" xml:space="preserve">
    <g>
        <path d="M54,8h4h2V5c0-0.55-0.45-1-1-1H45c-0.55,0-1,0.45-1,1v34.75l2,2l2,2v0.01l10,9.99l2,2V46h-2h-4c-0.55,0-1-0.45-1-1   s0.45-1,1-1h4h2v-4h-2h-2c-0.55,0-1-0.45-1-1s0.45-1,1-1h2h2v-4h-2h-4c-0.55,0-1-0.45-1-1s0.45-1,1-1h4h2v-4h-2h-2   c-0.55,0-1-0.45-1-1s0.45-1,1-1h2h2v-4h-2h-4c-0.55,0-1-0.45-1-1s0.45-1,1-1h4h2v-4h-2h-2c-0.55,0-1-0.45-1-1s0.45-1,1-1h2h2v-4h-2   h-4c-0.55,0-1-0.45-1-1S53.45,8,54,8z"></path>
        <path d="M58,56.59v-0.01L46,44.59v-0.01l-2-2L5.71,4.29C5.42,4.01,4.99,3.92,4.62,4.08C4.24,4.23,4,4.6,4,5v12h4c0.55,0,1,0.45,1,1   s-0.45,1-1,1H4v4h6c0.55,0,1,0.45,1,1s-0.45,1-1,1H4v4h4c0.55,0,1,0.45,1,1s-0.45,1-1,1H4v4h6c0.55,0,1,0.45,1,1s-0.45,1-1,1H4v4h4   c0.55,0,1,0.45,1,1s-0.45,1-1,1H4v4h6c0.55,0,1,0.45,1,1s-0.45,1-1,1H4v4h4c0.55,0,1,0.45,1,1s-0.45,1-1,1H4v4c0,0.55,0.45,1,1,1   h54c0.06,0,0.13,0,0.19-0.02c0.07-0.01,0.13-0.03,0.19-0.06c0.24-0.09,0.44-0.29,0.54-0.54c0.02-0.06,0.04-0.12,0.06-0.19   C59.99,59.13,60,59.06,60,59c0-0.26-0.1-0.52-0.29-0.71L58,56.59z M34.92,48.38C34.77,48.76,34.4,49,34,49H16c-0.55,0-1-0.45-1-1   V30c0-0.4,0.24-0.77,0.62-0.92c0.37-0.16,0.8-0.0699,1.09,0.21l18,18C34.99,47.58,35.08,48.01,34.92,48.38z"></path>
    </g>
</svg>
