<svg role="img" aria-hidden="true" xmlns="http://www.w3.org/2000/svg" data-name="Layer 1" viewBox="0 0 100 100" x="0px" y="0px">
    <path d="M53.4,90.63l2.8-2.8a3.59,3.59,0,0,0,.4-4.6l-2.72-3.88a24.18,24.18,0,0,0,2.41-5.81l4.66-.82a3.59,3.59,0,0,0,3-3.53v-4a3.59,3.59,0,0,0-3-3.53l-4.66-.82a24.18,24.18,0,0,0-2.41-5.81L56.6,51.2a3.59,3.59,0,0,0-.4-4.6l-2.8-2.8a3.59,3.59,0,0,0-4.6-.4l-3.88,2.72a24.15,24.15,0,0,0-5.81-2.41l-.82-4.66a3.59,3.59,0,0,0-3.53-3h-4a3.59,3.59,0,0,0-3.53,3l-.82,4.66a24.17,24.17,0,0,0-5.81,2.41L16.77,43.4a3.59,3.59,0,0,0-4.6.4l-2.8,2.8A3.59,3.59,0,0,0,9,51.2l2.72,3.88a24.15,24.15,0,0,0-2.41,5.81l-4.66.82a3.59,3.59,0,0,0-3,3.53v4a3.59,3.59,0,0,0,3,3.53l4.66.82a24.14,24.14,0,0,0,2.41,5.81L9,83.23a3.59,3.59,0,0,0,.4,4.6l2.8,2.8a3.59,3.59,0,0,0,4.6.4l3.88-2.72a24.2,24.2,0,0,0,5.81,2.41l.82,4.66a3.59,3.59,0,0,0,3.53,3h4a3.59,3.59,0,0,0,3.53-3l.82-4.66a24.16,24.16,0,0,0,5.81-2.41L48.8,91A3.59,3.59,0,0,0,53.4,90.63ZM32.78,77.89A10.68,10.68,0,1,1,43.46,67.22,10.68,10.68,0,0,1,32.78,77.89ZM97.2,18.72a3.59,3.59,0,0,0-3.78-2.64l-4.24.37a20,20,0,0,0-5.62-5.62l.37-4.24A3.59,3.59,0,0,0,81.28,2.8l-3.82-1a3.59,3.59,0,0,0-4.18,2L71.48,7.6a19.75,19.75,0,0,0-7.67,2.05L60.32,7.2a3.59,3.59,0,0,0-4.6.4l-2.8,2.8a3.59,3.59,0,0,0-.4,4.6L55,18.49a19.75,19.75,0,0,0-2.05,7.67L49.05,28a3.59,3.59,0,0,0-2,4.18l1,3.82a3.59,3.59,0,0,0,3.78,2.65l4.24-.37a20,20,0,0,0,5.62,5.62l-.37,4.24A3.59,3.59,0,0,0,64,51.88l3.82,1a3.59,3.59,0,0,0,4.18-2l1.8-3.87A19.75,19.75,0,0,0,81.51,45L85,47.48a3.59,3.59,0,0,0,4.6-.4l2.8-2.8a3.59,3.59,0,0,0,.4-4.6l-2.45-3.49a19.75,19.75,0,0,0,2.05-7.67l3.87-1.8a3.59,3.59,0,0,0,2-4.18ZM78,32.63A7.48,7.48,0,1,1,78,22,7.48,7.48,0,0,1,78,32.63Z"></path>
</svg>
