<svg role="img" aria-hidden="true" enable-background="new 0 0 100 100" viewBox="0 0 100 100" width="100" xmlns="http://www.w3.org/2000/svg">
    <path d="m96.99 92.39c-1.81-2.04-3.11-4.07-4.91-5.41-5.84-4.36-11.95-3.16-17.78.01-7.45 4.04-15.37 5.84-23.73 5.22-13.31-.99-24.95-6.23-35.2-14.68-4.83-3.99-8.96-8.6-12.87-14.45 17.39 10.8 34.75 15.68 54.12 5.77-17.51-13.58-31.11-30.12-44.06-47.32 5.83 4.65 11.58 9.41 17.53 13.91 5.99 4.54 12.18 8.82 18.55 12.82-8.21-10.25-16.41-20.49-24.62-30.74.21-.19.41-.39.62-.58 13.8 13.31 28.42 25.57 44.65 35.84 5-9.39 4.44-27.42-7.31-45.17 2.28 1.69 4.67 3.26 6.84 5.09 11.5 9.69 19.31 21.63 21.89 36.64.9 5.21.76 10.47-.5 15.6-.42 1.74-.14 2.95.85 4.34 4.5 6.33 7.05 13.29 6.33 21.2-.07.56-.23 1.09-.4 1.91z" />
</svg>
