<svg role="img" enable-background="new 0 0 500 500" height="100" viewBox="0 0 500 500" width="100" fill="#707070" xmlns="http://www.w3.org/2000/svg">
    <path d="m334.1 191.1c0 4.2-.2 8.4-.5 12.6-.1 1.8-.3 3.7-.5 5.5-.1.6-.4 3 0 .1-.2 1.4-.4 2.7-.6 4.1-1.3 7.8-3.2 15.5-5.6 23-1.2 3.6-2.5 7.1-3.9 10.7-1.1 2.7-.3.6 0 .1-.4.8-.7 1.6-1.1 2.4-.9 2-1.9 4-2.9 6-3.6 7.1-7.7 13.8-12.3 20.3-1 1.4-2.1 2.8-3.1 4.2 1.7-2.3-1.2 1.4-1.7 2.1-2.6 3.2-5.4 6.3-8.3 9.3-2.6 2.7-5.3 5.2-8 7.7-1.3 1.2-2.6 2.3-4 3.4-.7.6-5.5 4.4-3.1 2.6-6.3 4.8-12.9 9.1-19.8 12.9-3.1 1.7-6.2 3.3-9.4 4.8-1 .5-2 .9-3 1.4-2.1 1 2.1-.8-.1 0-2.1.8-4.1 1.6-6.2 2.4-7.4 2.7-15 4.8-22.7 6.4-2 .4-4 .8-6 1.1-.9.1-1.8.3-2.7.4-2.4.3 2.3-.3-.1 0-4.4.5-8.8.8-13.2 1-8.2.3-16.3-.1-24.4-1-2.4-.3 2.3.3-.1 0-1.1-.2-2.3-.3-3.4-.5-1.8-.3-3.6-.6-5.4-1-4-.8-7.9-1.8-11.8-2.9-3.7-1-7.3-2.2-10.8-3.5-1.9-.7-3.7-1.4-5.6-2.1-.5-.2-2.6-1.2-.1 0-1.2-.5-2.4-1.1-3.6-1.6-7-3.2-13.7-7-20.2-11.2-3.1-2-6.2-4.2-9.1-6.4 2.3 1.8-1.4-1.1-2.1-1.7-1.7-1.4-3.3-2.8-5-4.3-5.8-5.3-11.3-10.9-16.3-17-.6-.7-3.5-4.4-1.7-2.1-1.1-1.4-2.1-2.8-3.1-4.2-2.4-3.4-4.7-6.9-6.8-10.5-1.9-3.2-3.7-6.5-5.4-9.8-.8-1.6-1.6-3.2-2.3-4.8-.4-.8-.7-1.6-1.1-2.4-1.5-3.2.6 1.7-.6-1.3-3-7.5-5.5-15.1-7.3-23-.8-3.5-1.6-7.1-2.1-10.7-.1-.9-.3-1.8-.4-2.7-.7-4.4.2 1.9-.1-.8-.3-2.3-.5-4.6-.7-6.9-.6-8.2-.6-16.4.1-24.5.1-1.8.4-3.7.5-5.5.4-4.4-.3 1.9.1-.8.1-.9.3-1.8.4-2.7.7-4.3 1.5-8.5 2.6-12.7 1.8-7.4 4.2-14.6 7-21.7 1.6-4-.8 1.7.3-.7.4-.8.7-1.6 1.1-2.4.8-1.8 1.7-3.6 2.6-5.4 1.8-3.5 3.7-7 5.8-10.4 1.9-3.2 4-6.3 6.1-9.4 1.1-1.6 2.3-3.2 3.5-4.8-.4.5-1.7 2.1.1-.1.8-1 1.7-2 2.5-3 4.8-5.7 10-11 15.5-16 1.5-1.3 2.9-2.6 4.5-3.9.7-.5 4.9-3.9 2.6-2.2 3.1-2.4 6.4-4.7 9.7-6.8 6.5-4.2 13.2-7.9 20.2-11.2 1-.5 2-.9 3-1.4-.5.2-2.6 1 .1 0 1.7-.7 3.3-1.3 5-1.9 3.8-1.4 7.6-2.6 11.5-3.7s7.9-2.1 11.8-2.9c1.8-.4 3.6-.7 5.4-1 .9-.1 1.8-.3 2.7-.4 4.5-.7-3.1.3 1.5-.2 8.1-.8 16.3-1.2 24.4-.9 3.9.2 7.9.5 11.8.9 3 .3.7.1.1 0 .9.1 1.8.3 2.7.4 2.2.4 4.5.8 6.7 1.2 7.9 1.6 15.7 3.8 23.3 6.6 1.7.6 3.3 1.3 5 1.9 2.7 1.1.6.3.1 0 1 .4 2 .9 3 1.4 3.6 1.7 7.1 3.5 10.6 5.4 6.7 3.7 13.2 7.9 19.3 12.6-2.5-1.9 2.1 1.7 2.6 2.2 1.5 1.3 3 2.5 4.5 3.9 2.9 2.6 5.7 5.4 8.5 8.2 2.6 2.7 5 5.4 7.4 8.3.6.7 1.1 1.3 1.7 2 .3.3 2 2.5.9 1.1-1.3-1.7 1.3 1.7 1.2 1.6.6.9 1.3 1.8 1.9 2.7 4.4 6.3 8.4 12.9 11.9 19.7.9 1.8 1.8 3.6 2.6 5.4.4.8.7 1.6 1.1 2.4 1.1 2.4-1.3-3.3.3.7 1.5 3.7 2.9 7.5 4.1 11.3 2.4 7.5 4.2 15.2 5.5 23 .2 1.1.4 2.3.5 3.4-.1-.6-.3-2.9 0 .1.2 1.8.4 3.7.5 5.5-.3 4.2-.1 8.4-.1 12.6 0 7.8 6.9 15.4 15 15s15-6.6 15-15c-.2-35.7-11-71.3-31.8-100.4-21-29.3-49.9-51.4-83.7-63.9-67.7-24.8-147.3-3.1-193 52.5-23.3 28.4-37.2 62.6-40.1 99.2-2.7 35.5 6.1 72.1 24.5 102.5 17.9 29.6 44.9 54.3 76.6 68.5 34.2 15.4 71.9 19.8 108.6 12.4 69.3-14 125.8-72.6 136.5-142.6 1.4-9.4 2.3-18.8 2.4-28.2 0-7.8-6.9-15.4-15-15-8.2.3-15 6.6-15 15z" />
    <path d="m294.4 314.1 55.7 55.7 88.8 88.8 20.4 20.4c5.7 5.7 15.5 5.7 21.2 0s5.7-15.5 0-21.2c-18.6-18.6-37.1-37.1-55.7-55.7-29.6-29.6-59.2-59.2-88.8-88.8-6.8-6.8-13.6-13.6-20.4-20.4-5.7-5.7-15.5-5.7-21.2 0-5.8 5.7-5.8 15.4 0 21.2z" />
</svg>
