<svg role="img" aria-hidden="true" xmlns="http://www.w3.org/2000/svg" xmlns:xlink="http://www.w3.org/1999/xlink" xmlns:serif="http://www.serif.com/" viewBox="0 0 24 25" width="100" version="1.1" xml:space="preserve" fill-rule="evenodd" clip-rule="evenodd" stroke-linejoin="round" stroke-miterlimit="1.41421">
    <rect x="0" y="0.019" width="24" height="24" style="" fill="none"></rect>
    <path d="M19.712,15.905c0,0 -1.906,2.352 -7.594,2.373c-6.689,0.024 -7.843,-2.373 -7.843,-2.373l0,3.679c0,0 1.637,2.297 7.781,2.372c5.339,0.065 7.656,-2.372 7.656,-2.372l0,-3.679Zm0,-4.62c0,0 -1.906,2.352 -7.594,2.373c-6.689,0.024 -7.843,-2.373 -7.843,-2.373l0,3.678c0,0 1.637,2.298 7.781,2.373c5.339,0.065 7.656,-2.373 7.656,-2.373l0,-3.678Zm0,-4.62c0,0 -1.906,2.352 -7.594,2.372c-6.689,0.025 -7.843,-2.372 -7.843,-2.372l0,3.678c0,0 1.637,2.298 7.781,2.372c5.339,0.065 7.656,-2.372 7.656,-2.372l0,-3.678Zm-7.693,-4.583c4.253,0 7.706,1.327 7.706,2.961c0,1.634 -3.453,2.961 -7.706,2.961c-4.254,0 -7.707,-1.327 -7.707,-2.961c0,-1.634 3.453,-2.961 7.707,-2.961Z"></path>
</svg>
